<?xml version="1.0" encoding="UTF-8"?> <svg xmlns="http://www.w3.org/2000/svg" id="Layer_2" viewBox="0 0 300 71.59"><defs><style>.cls-1{fill:#003296;}.cls-2{fill:gold;}.cls-3{fill:#ff4132;}</style></defs><g id="Layer_1-2"><path class="cls-2" d="M277.03,0h0c-12.69,0-22.97,10.28-22.97,22.97v25.65c0,12.69,10.28,22.97,22.97,22.97h0c12.69,0,22.97-10.28,22.97-22.97v-25.65C300,10.29,289.72,0,277.03,0Z"></path><path class="cls-3" d="M251.38,23.8h0C251.38,10.66,240.72,0,227.58,0s-23.8,10.65-23.8,23.8,10.21,23.34,22.98,23.78l-15.4,24.02h14.15l21.71-33.66c2.48-3.85,3.9-8.28,4.13-12.84,0-.04,0-.07,0-.11.02-.39.03-.78.03-1.18ZM215.84,23.8c0-6.51,5.28-11.78,11.78-11.78s11.78,5.28,11.78,11.78-5.28,11.78-11.78,11.78-11.78-5.28-11.78-11.78Z"></path><path class="cls-1" d="M286.67,32.41c.19-.2.3-.42.3-.64,0-1.47-4.45-2.67-9.95-2.67s-9.95,1.19-9.95,2.67c0,.22.11.43.3.64v22.39c-.19.2-.3.42-.3.64,0,1.47,4.45,2.67,9.95,2.67s9.95-1.19,9.95-2.67c0-.22-.11-.43-.3-.64v-22.39ZM277.02,33.26c-4.61,0-8.34-.76-8.34-1.69,0-.75,3.73-1.69,8.34-1.69s8.34.94,8.34,1.69c0,.93-3.73,1.69-8.34,1.69Z"></path><path class="cls-3" d="M281.3,22.61c.54.49,1.23.85,1.99.86,1.39.01,1.78-1.47.67-1.95-.51-.22-.75-.26-1.12-.59s-.43-.58-.69-1.06c-.58-1.06-2.02-.53-1.88.85.08.75.5,1.41,1.04,1.9Z"></path><path class="cls-3" d="M284.61,16.09c-.4-.61-.98-1.13-1.71-1.33-1.35-.36-2.09.98-1.14,1.73.44.34.67.44.94.85s.27.67.41,1.2c.3,1.17,1.83,1.02,2.04-.36.11-.75-.13-1.49-.53-2.1Z"></path><path class="cls-3" d="M278.65,17.79c.6-.41,1.11-1.01,1.29-1.74.33-1.35-1.03-2.07-1.75-1.1-.33.45-.42.68-.83.96s-.66.29-1.19.43c-1.17.33-.98,1.85.4,2.03.75.1,1.48-.17,2.09-.58Z"></path><path class="cls-3" d="M274.24,12.41c-.65.34-1.23.86-1.49,1.57-.49,1.3.77,2.18,1.6,1.3.38-.4.5-.62.94-.85s.69-.2,1.24-.28c1.2-.18,1.2-1.71-.15-2.06-.73-.19-1.49-.02-2.14.32Z"></path><path class="cls-3" d="M272.19,17.04c-.68-.27-1.45-.36-2.16-.1-1.31.48-1.15,2.01.06,2.07.55.03.8-.03,1.26.16s.6.39,1.02.75c.92.79,2.08-.21,1.46-1.46-.34-.68-.96-1.14-1.64-1.41Z"></path><path class="cls-3" d="M272.22,24.87c.63-.38,1.17-.93,1.39-1.66.41-1.33-.9-2.13-1.68-1.21-.36.42-.46.65-.89.91s-.68.24-1.22.36c-1.18.25-1.09,1.78.27,2.05.74.14,1.49-.07,2.12-.45Z"></path><path class="cls-3" d="M275.45,20.75c-.39.62-.63,1.36-.51,2.11.23,1.37,1.76,1.51,2.04.33.13-.54.12-.79.39-1.21s.5-.52.93-.86c.95-.75.18-2.08-1.16-1.71-.73.2-1.3.73-1.7,1.35Z"></path><path class="cls-3" d="M280.1,26.29c.57-.45,1.04-1.07,1.17-1.82.24-1.37-1.16-2-1.82-.98-.3.47-.38.7-.77,1.01s-.64.33-1.16.51c-1.14.4-.86,1.91.53,2,.76.05,1.47-.26,2.05-.71Z"></path><path class="cls-3" d="M284.73,28.71c.19-.7.2-1.48-.14-2.16-.62-1.24-2.12-.92-2.05.29.03.55.11.79-.02,1.27s-.32.64-.63,1.1c-.68,1,.44,2.04,1.61,1.29.64-.41,1.03-1.08,1.22-1.79Z"></path><path class="cls-3" d="M276.89,29.43c-.46.57-.78,1.28-.75,2.03.07,1.39,1.57,1.7,1.99.56.19-.52.21-.77.53-1.15s.55-.46,1.02-.75c1.03-.64.42-2.05-.95-1.83-.75.12-1.38.58-1.84,1.14Z"></path><path class="cls-3" d="M275.41,27.27c-.3-.66-.8-1.27-1.49-1.57-1.28-.55-2.22.66-1.38,1.54.38.4.59.53.8.98s.17.7.22,1.25c.12,1.21,1.65,1.28,2.07-.05.23-.72.09-1.49-.21-2.16Z"></path><path class="cls-3" d="M282.18,32.89c-.29-.32-.34-.57-.56-1.04-.51-1.1-1.98-.67-1.94.72,0,.2.04.39.09.58.88-.06,1.69-.15,2.4-.27Z"></path><path class="cls-3" d="M271.18,32.77c.62.12,1.33.23,2.12.31.36-.34.43-.92-.03-1.39-.39-.4-.6-.52-.81-.98s-.17-.7-.24-1.25c-.13-1.2-1.67-1.26-2.07.07-.22.73-.08,1.49.24,2.15.19.4.45.79.79,1.09Z"></path><rect class="cls-2" y="63.7" width="195.89" height="7.89"></rect><path class="cls-1" d="M198.47,46.01c0-1.94,1.58-3.37,3.44-3.37s3.42,1.43,3.42,3.37-1.58,3.39-3.42,3.39-3.44-1.43-3.44-3.39ZM201.91,48.84c1.53,0,2.74-1.2,2.74-2.83s-1.21-2.81-2.74-2.81-2.76,1.21-2.76,2.81,1.21,2.83,2.76,2.83ZM201.19,47.97h-.59v-3.9h1.49c.92,0,1.38.34,1.38,1.11,0,.7-.44,1-1.01,1.07l1.11,1.72h-.66l-1.03-1.69h-.68v1.69ZM201.9,45.78c.5,0,.95-.04.95-.64,0-.48-.44-.57-.85-.57h-.81v1.21h.71Z"></path><path class="cls-1" d="M195.41,19.92c-.56-8.03-6.18-15.71-14.27-18.51C178.5.4,176.03,0,173.29,0h-.03c-2.74,0-5.21.39-7.85,1.4-8.09,2.79-13.71,10.48-14.27,18.51-.45,2.59-.48,7.69-.48,7.69v22.79h13.39v-13.41h18.47v13.41h13.39v-22.79s-.03-5.1-.48-7.69ZM182.51,26.62h-18.47c0-5.32-.32-11,5.5-13.57,1.19-.6,2.46-.77,3.73-.8h0,0c1.27.03,2.54.2,3.73.8,5.82,2.56,5.5,8.24,5.5,13.57Z"></path><path class="cls-1" d="M74.37,0c-14.12,0-25.56,11.44-25.56,25.56s11.44,25.56,25.56,25.56,25.56-11.44,25.56-25.56S88.49,0,74.37,0ZM74.41,38.22c-6.99,0-12.66-5.67-12.66-12.66s5.67-12.66,12.66-12.66,12.66,5.67,12.66,12.66-5.67,12.66-12.66,12.66Z"></path><path class="cls-1" d="M132.38,50.4v-11.56c.03-.12,10.68-2.62,13.75-15.57.66-3,.82-6.63.87-10.09l-.02-12.24h-14.02v16.68c0,8.47-7.6,8.43-7.6,8.43,0,0-7.69-.16-7.68-8.43V.93h-14.03l-.02,12.24c.05,3.45.22,7.08.87,10.09,3.07,12.96,13.73,15.46,13.75,15.57v11.56h14.09Z"></path><path class="cls-1" d="M30.74,57.61l.42-18.47c0-.98-.13-.71-.42-.19-2.46,3.85-7.29,12.08-7.29,12.08C10.32,49.96,0,38.97,0,25.56,0,11.44,11.44,0,25.56,0c6.2,0,11.89,2.21,16.32,5.89l-7.12,11.52c-2.25-2.54-5.54-4.14-9.19-4.14-6.79,0-12.29,5.5-12.29,12.29s5.5,12.29,12.29,12.29c2.04,0,3.96-.5,5.65-1.37l.03-.44.11-9.27,13.58-2.61-.53,30.93-13.66,2.52Z"></path></g></svg> 