<?xml version="1.0" encoding="UTF-8" standalone="no"?>
<!-- Created with Inkscape (http://www.inkscape.org/) -->

<svg
   xmlns:dc="http://purl.org/dc/elements/1.1/"
   xmlns:cc="http://creativecommons.org/ns#"
   xmlns:rdf="http://www.w3.org/1999/02/22-rdf-syntax-ns#"
   xmlns:svg="http://www.w3.org/2000/svg"
   xmlns="http://www.w3.org/2000/svg"
   xmlns:xlink="http://www.w3.org/1999/xlink"
   xmlns:sodipodi="http://sodipodi.sourceforge.net/DTD/sodipodi-0.dtd"
   xmlns:inkscape="http://www.inkscape.org/namespaces/inkscape"
   width="507.04803"
   height="212.68336"
   viewBox="0 0 134.15645 56.272471"
   version="1.1"
   id="svg20450"
   inkscape:version="0.92.0 r15299"
   sodipodi:docname="liberty pr.svg">
  <defs
     id="defs20444"><rect
   height="792"
   width="612"
   y="-296"
   x="-54"
   id="SVGID_1_" />

	
	

		
	
			<defs
   id="defs20453">
				<rect
   id="rect20526"
   x="-54"
   y="-296"
   width="612"
   height="792" />

			</defs>

			<clipPath
   id="SVGID_2_">
				<use
   height="100%"
   width="100%"
   y="0"
   x="0"
   style="overflow:visible"
   xlink:href="#SVGID_1_"
   overflow="visible"
   id="use20455" />

			</clipPath>

			
			
			
			
			
			
			
			
			
			
			
			
			
			
			
			
			
			
			
			
			
			
			
			
			
			
			
		</defs>
  <sodipodi:namedview
     id="base"
     pagecolor="#ffffff"
     bordercolor="#666666"
     borderopacity="1.0"
     inkscape:pageopacity="0.0"
     inkscape:pageshadow="2"
     inkscape:zoom="1.7760688"
     inkscape:cx="252.524"
     inkscape:cy="105.0251"
     inkscape:document-units="mm"
     inkscape:current-layer="layer1"
     showgrid="false"
     fit-margin-top="0"
     fit-margin-left="0"
     fit-margin-right="0"
     fit-margin-bottom="0"
     units="px"
     inkscape:window-width="1280"
     inkscape:window-height="744"
     inkscape:window-x="-4"
     inkscape:window-y="-4"
     inkscape:window-maximized="1" />
  <metadata
     id="metadata20447">
    <rdf:RDF>
      <cc:Work
         rdf:about="">
        <dc:format>image/svg+xml</dc:format>
        <dc:type
           rdf:resource="http://purl.org/dc/dcmitype/StillImage" />
        <dc:title></dc:title>
      </cc:Work>
    </rdf:RDF>
  </metadata>
  <g
     inkscape:label="Layer 1"
     inkscape:groupmode="layer"
     id="layer1"
     transform="translate(182.47436,70.907205)">
    <g
       id="g20667"
       transform="translate(0.26458752,-0.26458725)">
      <path
         transform="matrix(0.26458333,0,0,0.26458333,-183.41019,-71.494965)"
         id="path20458"
         d="M 463.276,73.867 C 449.764,33.664 416.289,3.754 370.088,4.227 318.928,3.85 255.049,40.257 213.028,95.126 256.797,40.959 320.168,8.234 368.141,11.287 c 42.332,1.77 70.761,30.348 81.699,68.241 z"
         clip-path="url(#SVGID_2_)"
         inkscape:connector-curvature="0"
         style="fill:#7ab8d6" />
      <path
         transform="matrix(0.26458333,0,0,0.26458333,-183.41019,-71.494965)"
         id="path20460"
         d="M 399.197,74.58 C 383.258,39.994 350.165,16.239 306.761,17.465 258.946,18.134 203.623,49.861 170.648,94.789 c 34.4,-44.079 89.021,-72.804 134.005,-71.642 40.319,0.357 69.693,23.366 83.391,55.999 z"
         clip-path="url(#SVGID_2_)"
         inkscape:connector-curvature="0"
         style="fill:#1297cc" />
      <path
         transform="matrix(0.26458333,0,0,0.26458333,-183.41019,-71.494965)"
         id="path20462"
         d="M 504.023,74.892 C 486.782,37.799 450.025,13.787 401.33,15.887 349.075,17.561 290.02,50.862 255.564,95.399 291.574,51.53 350.073,21.175 399.468,21.485 c 44.865,-0.352 78.019,23.821 93.008,58.41 z"
         clip-path="url(#SVGID_2_)"
         inkscape:connector-curvature="0"
         style="fill:#0073ab" />
      <polygon
         transform="matrix(0.26458333,0,0,0.26458333,-183.41019,-71.494965)"
         id="polygon20464"
         points="54.952,86.535 29.557,167.72 71.298,167.72 66.453,182.907 3.537,182.907 33.624,86.535 "
         clip-path="url(#SVGID_2_)"
         style="fill:#1297cc" />
      <path
         transform="matrix(0.26458333,0,0,0.26458333,-183.41019,-71.494965)"
         id="path20466"
         d="m 102.811,111.804 h 20.414 l -22.322,71.104 H 80.487 Z m 8.233,-25.334 h 20.413 l -5.65,17.672 h -20.414 z"
         clip-path="url(#SVGID_2_)"
         inkscape:connector-curvature="0"
         style="fill:#1297cc" />
      <path
         transform="matrix(0.26458333,0,0,0.26458333,-183.41019,-71.494965)"
         id="path20468"
         d="m 145.172,86.657 h 20.869 l -10.919,32.186 -0.023,0.277 0.324,-0.277 h -0.152 l 0.284,0.277 c 5.427,-5.108 12.736,-8.974 21.726,-8.974 19.499,0 27.85,12.01 26.533,28.854 -1.741,22.228 -17.124,45.563 -44.392,45.563 -11.12,0 -16.007,-1.794 -21.628,-11.736 h -0.304 l -3.226,10.079 h -19.196 z m 37.261,53.034 c 0.682,-8.699 -3.688,-15.187 -13.132,-15.187 -13.863,0 -22.928,16.569 -23.903,28.993 -0.712,9.112 2.199,16.708 12.1,16.708 17.063,10e-4 24.06,-19.33 24.935,-30.514"
         clip-path="url(#SVGID_2_)"
         inkscape:connector-curvature="0"
         style="fill:#1297cc" />
      <path
         transform="matrix(0.26458333,0,0,0.26458333,-183.41019,-71.494965)"
         id="path20470"
         d="m 229.809,153.085 c -1.026,13.116 6.366,17.948 20.381,17.948 8.378,0 16.604,-1.935 24.467,-5.108 l -3.734,14.634 c -8.095,2.211 -16.918,4.005 -25.295,4.005 -22.546,0 -37.003,-9.94 -35.351,-31.065 1.729,-22.091 22.282,-43.352 48.027,-43.352 19.349,0 31.442,8.974 30.025,27.06 -0.418,5.384 -1.592,10.632 -3.221,15.879 h -55.299 z m 38.314,-12.702 c 0.438,-1.657 0.706,-3.177 0.837,-4.833 0.594,-7.593 -3.488,-11.874 -12.021,-11.874 -12.643,0 -18.668,6.904 -23.396,16.707 z"
         clip-path="url(#SVGID_2_)"
         inkscape:connector-curvature="0"
         style="fill:#1297cc" />
      <path
         transform="matrix(0.26458333,0,0,0.26458333,-183.41019,-71.494965)"
         id="path20472"
         d="m 307.852,121.328 c 0.845,-3.036 1.703,-6.212 2.571,-9.525 h 19.5 l -3.788,13.394 h 0.303 c 4.261,-7.734 14.753,-14.795 24.2,-14.795 2.587,0 7.892,0.117 7.892,0.117 l -5.71,17.031 c 0,0 -7.932,-0.012 -10.557,0.24 -14.64,1.384 -19.538,11.765 -23.025,23.223 l -9.807,31.894 h -20.414 z"
         clip-path="url(#SVGID_2_)"
         inkscape:connector-curvature="0"
         style="fill:#1297cc" />
      <path
         transform="matrix(0.26458333,0,0,0.26458333,-183.41019,-71.494965)"
         id="path20474"
         d="m 368.324,110.534 h 14.778 l 4.509,-14.841 23.437,-9.311 -7.534,24.152 h 18.281 l -5.843,17.022 h -18.281 l -8.944,28.842 c -0.587,1.657 -1.237,4.142 -1.455,6.902 -0.336,4.282 2.659,6.905 7.23,6.905 3.656,0 7.876,-0.302 10.601,-0.738 l -5.018,14.554 c -3.613,0.335 -7.772,0.542 -11.278,0.542 -13.862,0 -23.223,-4.97 -22.154,-18.639 0.435,-5.525 2.072,-10.908 3.887,-16.569 l 6.717,-21.799 H 362.48 Z"
         clip-path="url(#SVGID_2_)"
         inkscape:connector-curvature="0"
         style="fill:#1297cc" />
      <path
         transform="matrix(0.26458333,0,0,0.26458333,-183.41019,-71.494965)"
         id="path20476"
         d="m 447.346,111.173 3.175,52.879 h 0.302 l 35.369,-52.879 h 22.393 l -59.571,81.871 c -7.003,9.665 -13.812,19.249 -31.084,21.501 -5.198,0.677 -10.204,0.336 -15.387,-0.501 l 4.721,-14.929 c 2.444,0.508 5.586,0.949 9.713,0.409 6.113,-0.793 9.577,-3.718 17.527,-13.798 l -8.027,-74.554 h 20.869 z"
         clip-path="url(#SVGID_2_)"
         inkscape:connector-curvature="0"
         style="fill:#1297cc" />
    </g>
  </g>
</svg>
